PathFileType	4	(X/Y/Z)	/Users/niels/Desktop/University/Third Semester/Perception and Action/Exam/Gymnastics Motion Tracking/Code for Gym Tracking/Scripts/Analyzed Data/Start Salto/st_salto_good_id8_1_Sports2D/st_salto_good_id8_1_Sports2D_px_person00.trc
DataRate	CameraRate	NumFrames	NumMarkers	Units	OrigDataRate	OrigDataStartFrame	OrigNumFrames
156.22293616426876	156.22293616426876	8	22	m	156.22293616426876	408	467
Frame#	Time	Hip			RHip			RKnee			RAnkle			RBigToe			RSmallToe			RHeel			LHip			LKnee			LAnkle			LBigToe			LSmallToe			LHeel			Neck			Head			Nose			RShoulder			RElbow			RWrist			LShoulder			LElbow			LWrist		
		X1	Y1	Z1	X2	Y2	Z2	X3	Y3	Z3	X4	Y4	Z4	X5	Y5	Z5	X6	Y6	Z6	X7	Y7	Z7	X8	Y8	Z8	X9	Y9	Z9	X10	Y10	Z10	X11	Y11	Z11	X12	Y12	Z12	X13	Y13	Z13	X14	Y14	Z14	X15	Y15	Z15	X16	Y16	Z16	X17	Y17	Z17	X18	Y18	Z18	X19	Y19	Z19	X20	Y20	Z20	X21	Y21	Z21	X22	Y22	Z22
408	2.6116523605150217	1.890552625918638	-0.46753171752874245	0.0	1.8740569227683437	-0.5017431485218388	0.0	1.8249301123849992	-0.5669314251652661	0.0	1.686875474708217	-0.5699285614860634	0.0	1.6746616949387534	-0.6196795189017209	0.0	1.6632467975932004	-0.6135836469927144	0.0	1.6647829789532365	-0.5664506113458592	0.0	1.8890702497485559	-0.5075858603181468	0.0	1.8827982895348403	-0.5706314937017016	0.0	1.7743275596808115	-0.6031631697617134	0.0	1.770423142769527	-0.6415227451443155	0.0	1.857504837981413	-0.6902651822460127	0.0	1.7445195686303858	-0.5980627804370648	0.0	1.9526170172150985	-0.40071135387146745	0.0	1.9631694980368812	-0.29395971708840624	0.0	1.9618912277789946	-0.29854179224702154	0.0	1.950778924771447	-0.40220472550960945	0.0	1.9128683290903954	-0.5041639266603294	0.0	1.8509557518426778	-0.5071054007654341	0.0	1.9442308591972066	-0.4086308037773654	0.0	1.8947414377002672	-0.5009053095624285	0.0	1.7963462436123991	-0.5071166214175439	0.0
409	2.618053469241774	1.8970394591477813	-0.4679913821031791	0.0	1.8784992081542764	-0.5089596509993192	0.0	1.8302091122514694	-0.5649276440227513	0.0	1.6921661085012394	-0.5634371634245912	0.0	1.6787190499450528	-0.6120563112387352	0.0	1.6663517189324122	-0.6066799529923612	0.0	1.669191861877856	-0.5600691128602104	0.0	1.8942867432091541	-0.5139011081994619	0.0	1.8848699099471178	-0.5685852132923938	0.0	1.77450729462369	-0.5953577037242572	0.0	1.7685923590335388	-0.6331622938240546	0.0	1.8576700050271362	-0.6832474242930735	0.0	1.7439210182705733	-0.5903320359405241	0.0	1.9540062751711014	-0.40218457359740123	0.0	1.9634137852918836	-0.2929861383127844	0.0	1.9625590339649814	-0.29671482885549283	0.0	1.9521155518947015	-0.4034452370252587	0.0	1.9114810187821378	-0.5082001731764926	0.0	1.844459346741572	-0.5073999587792472	0.0	1.9466734852945995	-0.4105421240863658	0.0	1.8950253081162665	-0.5049953970503875	0.0	1.7914028975902947	-0.5076096580261586	0.0
410	2.6244545779685264	1.9031868972329515	-0.4684991833471714	0.0	1.8825454570953102	-0.5167931883688774	0.0	1.8354319311568992	-0.5630218292501624	0.0	1.6976129120377454	-0.5571371009323163	0.0	1.6829347702531452	-0.6045466354532247	0.0	1.6695224982406414	-0.5999978997249995	0.0	1.6736509445108834	-0.5539295147693302	0.0	1.8990227587263817	-0.5207783896177913	0.0	1.8866581084758425	-0.5666058330092264	0.0	1.774574388024383	-0.5875153380088498	0.0	1.7666715974058573	-0.6247262400302944	0.0	1.8569034902843724	-0.6756357942381869	0.0	1.743164816548997	-0.5826507294839857	0.0	1.955161839391804	-0.4035548453604783	0.0	1.963554009645863	-0.29209927889077314	0.0	1.9630822923317675	-0.2950655220987966	0.0	1.9532519562715724	-0.4045896390086201	0.0	1.9100954487846302	-0.5119711082627241	0.0	1.8380065664607965	-0.5075677493193052	0.0	1.94880871931195	-0.4123407414114303	0.0	1.8952485510742192	-0.5088617120268771	0.0	1.7868908165365291	-0.5079447152498507	0.0
411	2.630855686695279	1.908979720677684	-0.4690422922012517	0.0	1.8861866090076218	-0.5252123195751163	0.0	1.840572339955258	-0.5612181225652929	0.0	1.7031875414550979	-0.5510478587051492	0.0	1.687285514019263	-0.597175135559968	0.0	1.6727346561461007	-0.5935632934634133	0.0	1.6781292615920582	-0.5480521370888864	0.0	1.9032705805864298	-0.5282093015821807	0.0	1.8882135180803301	-0.5647052738337764	0.0	1.7746146864249766	-0.5797105125180374	0.0	1.7647583212996398	-0.616276094365459	0.0	1.8552691350958375	-0.6674581137633326	0.0	1.7423212039079419	-0.5750914965050433	0.0	1.9561048785297261	-0.40482000093731685	0.0	1.9636045933003474	-0.29129739655170517	0.0	1.963476652125747	-0.29358806664832654	0.0	1.9542043215535025	-0.405637706904802	0.0	1.9087636185397396	-0.5154426039606518	0.0	1.8316988138014816	-0.5076025499597256	0.0	1.9506561947945245	-0.41402029834158777	0.0	1.8954569022488328	-0.5124649894370064	0.0	1.7828578955647387	-0.5081113229751536	0.0
412	2.6372567954220316	1.9144052811613579	-0.46960843565164634	0.0	1.8894190930012047	-0.5341734715510149	0.0	1.8456033227483184	-0.5595199610386511	0.0	1.7088587292279924	-0.5451876146428937	0.0	1.691745931122222	-0.5899670038171825	0.0	1.6759626322797594	-0.5873999717855124	0.0	1.6825944602529903	-0.5424555270848261	0.0	1.9070254705064065	-0.5361747855659375	0.0	1.8895808894576755	-0.5628939089109558	0.0	1.7746956842335266	-0.5720100993828723	0.0	1.762930629180859	-0.6078702605954939	0.0	1.8528432386226588	-0.6587560603471314	0.0	1.7414447277996126	-0.5677191190360391	0.0	1.9568560834822581	-0.405979614453683	0.0	1.9635788968882093	-0.2905778876778068	0.0	1.9637570328604617	-0.29227527250186086	0.0	1.9549887539057667	-0.40659053700227343	0.0	1.9075297848412587	-0.518590761172524	0.0	1.8256399863326302	-0.5074990420340043	0.0	1.9522363119427302	-0.415577021771161	0.0	1.8956882811268536	-0.5157764340371706	0.0	1.779337863427907	-0.5081043399160922	0.0
413	2.643657904148784	1.9194536299878224	-0.4701866224699269	0.0	1.8922450439714205	-0.543619527046429	0.0	1.8504974033136363	-0.557930005102965	0.0	1.7145923400501286	-0.5395731973839696	0.0	1.696288448579114	-0.5829475743416583	0.0	1.6791798835331915	-0.5815293526595889	0.0	1.6870132269314146	-0.5371560960187117	0.0	1.9102859323433	-0.5446434741274203	0.0	1.8907953287687134	-0.5611801972031394	0.0	1.77486775585723	-0.5644738186862024	0.0	1.7612488427839432	-0.599564068681	0.0	1.8497148948870192	-0.6495868896015495	0.0	1.7405756946346351	-0.5605901201681683	0.0	1.9574354660822177	-0.4070347352888172	0.0	1.9634892073822412	-0.28993745689845796	0.0	1.963937539471439	-0.2911188777109191	0.0	1.9556210792128288	-0.407450325015071	0.0	1.9064252649944242	-0.5214010369489191	0.0	1.8199212336681574	-0.5072561101895663	0.0	1.9535698453594597	-0.4170093686556411	0.0	1.8959690312611694	-0.5187768607122154	0.0	1.7763488776482905	-0.5079249783012006	0.0
414	2.6500590128755364	1.9241182507585983	-0.4707673243366473	0.0	1.8946726490080295	-0.5534784322331142	0.0	1.8552272405416965	-0.5564500635644929	0.0	1.7203516789734141	-0.534219978666149	0.0	1.7008831179091697	-0.5761415612747512	0.0	1.682359290095973	-0.5759700313514852	0.0	1.691351965177265	-0.5321677504996085	0.0	1.913054949128659	-0.5535700078763265	0.0	1.8918822899360188	-0.5595706331590922	0.0	1.7751654929834242	-0.5571544892435768	0.0	1.7597571506610614	-0.5914096074420173	0.0	1.8459864955998115	-0.6400252666865285	0.0	1.7397419203982782	-0.5537527050691591	0.0	1.9578621983663484	-0.407987643109468	0.0	1.9633467422238022	-0.28937226936413013	0.0	1.964031401623981	-0.2901098264526611	0.0	1.9561166757727322	-0.40822016465862215	0.0	1.9054685170137384	-0.5238673593174525	0.0	1.8146118729444538	-0.5068783657137966	0.0	1.954677608211259	-0.41831769746870856	0.0	1.89631409597756	-0.5214557489240886	0.0	1.7738938953646641	-0.5075806550680263	0.0
415	2.656460121602289	1.9283972776697724	-0.4713424147057799	0.0	1.8967163803789322	-0.563663295594288	0.0	1.8597666672512005	-0.555080973699163	0.0	1.7260983232168396	-0.5291414515310859	0.0	1.7054980263830763	-0.5695722241886815	0.0	1.6854741296028644	-0.5707372488748327	0.0	1.6955779481877922	-0.5275014430245571	0.0	1.915342048475628	-0.5628938718638603	0.0	1.892859267808403	-0.5580697411411062	0.0	1.7756094571734378	-0.550097868274132	0.0	1.7584852226263477	-0.5834555365253793	0.0	1.8417743799077948	-0.6301651945195249	0.0	1.7389609723983581	-0.5472468096472461	0.0	1.9581544882131834	-0.4088416248379178	0.0	1.9631616670766787	-0.28887808637975076	0.0	1.9640509342020236	-0.28923851416150126	0.0	1.956490339156512	-0.40890386577682075	0.0	1.9046672821163582	-0.5259911633100178	0.0	1.8097591000937114	-0.5063754496086195	0.0	1.955580168452172	-0.4195039657209056	0.0	1.896728867351987	-0.5238102193356868	0.0	1.771962293791577	-0.5070839206829237	0.0
